<svg xmlns="http://www.w3.org/2000/svg" xmlns:xlink="http://www.w3.org/1999/xlink" width="219.093" height="86.875" viewBox="0 0 219.093 86.875"><defs><clipPath id="a"><rect width="219.093" height="86.875" fill="none"/></clipPath><clipPath id="c"><rect width="6.879" height="14.051" fill="none"/></clipPath><clipPath id="d"><rect width="4.017" height="13.317" fill="none"/></clipPath><clipPath id="e"><rect width="6.663" height="13.413" fill="none"/></clipPath><clipPath id="f"><rect width="4.04" height="13.474" fill="none"/></clipPath><clipPath id="g"><rect width="5.978" height="17.502" fill="none"/></clipPath><clipPath id="h"><rect width="11.976" height="19.544" fill="none"/></clipPath></defs><g clip-path="url(#a)"><g clip-path="url(#a)"><path d="M89.432,189.138a45.867,45.867,0,0,0-2.059,12.275c-.071,4.251-.024,8.68,1.61,12.694a21.775,21.775,0,0,1-2.949-5.945,52.237,52.237,0,0,1-2.724-20.2l6.122,1.176" transform="translate(-57.991 -131.026)" fill="#ed0033"/><path d="M90.948,193.183a47.77,47.77,0,0,0,.252,12.959c.745,4.364,1.645,8.888,4.089,12.682a22.667,22.667,0,0,1-4.161-5.518,54.374,54.374,0,0,1-6.671-20.15l6.491.026" transform="translate(-58.874 -134.648)" fill="#ed0033"/><path d="M183.922,189.076a45.866,45.866,0,0,1,2.059,12.275c.071,4.251.024,8.68-1.61,12.694a21.777,21.777,0,0,0,2.949-5.945,52.238,52.238,0,0,0,2.724-20.2l-6.122,1.176" transform="translate(-128.21 -130.983)" fill="#ed0033"/><path d="M171.842,193.12a47.771,47.771,0,0,1-.252,12.958c-.745,4.364-1.644,8.888-4.089,12.682a22.668,22.668,0,0,0,4.161-5.518,54.374,54.374,0,0,0,6.671-20.15l-6.491.026" transform="translate(-116.763 -134.604)" fill="#ed0033"/><path d="M111.39,91.156v.007a10.532,10.532,0,0,1-.095,1.078l-.081.6-.654-.148c-.04-.007-.081-.02-.121-.027a35.764,35.764,0,0,0-15,.35l-.135.034a39.4,39.4,0,0,1-13.081,1.024,66.585,66.585,0,0,1-7.912-1.038l-.095-.027a22.931,22.931,0,0,0-2.433-.546C71.2,92.37,70.6,92.3,70,92.248c-.661-.061-1.335-.088-2.022-.088a25.046,25.046,0,0,0-2.534.128c-.869.081-1.759.2-2.662.371a1.812,1.812,0,0,0-.2.034l-.674.128-.041-.613c-.027-.3-.04-.633-.047-1.024v-.007c-.02-.95.014-2.2.1-3.733.074-1.362.2-2.959.35-4.771.014-.216.034-.439.054-.634l.283-3.377.317-.128c.1-.041.216-.074.344-.115l.141-.047c.29-.088.681-.182,1.233-.3s1.233-.223,1.975-.323c1.017-.141,2.19-.276,3.471-.391.364-.034.735-.067,1.126-.094s.8-.061,1.206-.094c.034,0,.074-.007.108-.007.162-.013.33-.02.5-.033,3.174-.216,6.726-.344,10.6-.384.917-.007,1.854-.014,2.81-.014,5.324,0,10.136.155,14.308.458.04,0,.081.007.121.007.964.067,2,.161,3.087.276a29.11,29.11,0,0,1,5.9,1.017l.472.2.054.357c.067.4.121.8.175,1.193l.068.479.007.1c.027.148.047.33.074.539.034.27.067.546.108.849l.047.39c.2,1.772.35,3.417.438,4.86a36.76,36.76,0,0,1,.088,3.693" transform="translate(-43.091 -53.49)" fill="#ed0033"/><g transform="translate(54.95 44.415)" opacity="0.3"><g clip-path="url(#c)"><path d="M188.284,148.074l-2.647,12.6a20.918,20.918,0,0,1-3.338-1.642,7.343,7.343,0,0,0-.893-.588l2.48-11.822c.365.053.739.118,1.122.189Z" transform="translate(-181.406 -146.628)" fill="#fff"/></g></g><g transform="translate(60.959 44.633)" opacity="0.6"><g clip-path="url(#d)"><path d="M205.262,148.142l-2.817,12.523a4.028,4.028,0,0,1-.963-1.128,2.322,2.322,0,0,0-.236-.445l2.642-11.745a3.091,3.091,0,0,1,.377.029Z" transform="translate(-201.245 -147.348)" fill="#fff"/></g></g><g transform="translate(26.246 45.188)" opacity="0.3"><g clip-path="url(#e)"><path d="M93.308,149.572l-.859,13.02a30.949,30.949,0,0,1-4.556-.754,10.092,10.092,0,0,0-1.249-.347l.8-12.21c.473-.042.96-.074,1.459-.1Z" transform="translate(-86.645 -149.179)" fill="#fff"/></g></g><g transform="translate(22.339 45.171)" opacity="0.4"><g clip-path="url(#f)"><path d="M77.787,149.6,76.849,162.6a9.972,9.972,0,0,1-2.438-.843,3.762,3.762,0,0,0-.663-.371l.879-12.186c.257-.032.522-.055.793-.073Z" transform="translate(-73.747 -149.125)" fill="#fff"/></g></g><path d="M87.153,52.105,78.865,37.515l6.807-2.2L73.081,23.149,76.549,12.9l-13.59.1L59.882,1.279,49.909,8.19,43.644,0l-.068.083L43.516,0,37.252,8.19,27.286,1.279,24.2,13,10.62,12.9l3.46,10.251L1.482,35.311l6.814,2.2L0,52.105H6.16a40.19,40.19,0,0,0-.233,13.846l.27,1.767L9.288,66.29a19.455,19.455,0,0,0,3.866,10.725l1.339,1.677.9-1.873c2.392,2.753,6.694,5.641,11.876,5.242.211-.015.414-.038.632-.06l1.459-.188,1.963-.248-1.256-.9a.407.407,0,0,0-.06-.03,25.283,25.283,0,0,1-9.747-10.559c-.188-.429-.369-.858-.526-1.3l-1.113.872-1.1.858-.008.008.023.038.556.97a30.855,30.855,0,0,0,5.573,7.529,1.1,1.1,0,0,1-.165-.053,12.933,12.933,0,0,1-7.16-5.453l-1.256-2.264-1.06,2.189A20.489,20.489,0,0,1,11.861,64.2l-.06-2.038L8.349,63.755a38.04,38.04,0,0,1,.782-12.688l.383-1.655H4.633l7.641-13.447L6.589,34.13,17.178,23.9l-2.8-8.28,11.9.09L28.911,5.686l8.92,6.182,5.686-7.431.06.083.068-.083,5.686,7.431,8.92-6.182,2.632,10.025,11.9-.09-2.8,8.28L80.572,34.13l-5.686,1.835,7.641,13.447H77.647l.384,1.655A37.657,37.657,0,0,1,78.8,63.755l-3.452-1.594-.06,2.038a20.4,20.4,0,0,1-2.151,9.266l-1.06-2.189L70.81,73.54a12.868,12.868,0,0,1-7.288,5.5c-.007,0-.022.008-.03.008a30.657,30.657,0,0,0,5.573-7.529l.173-.294.406-.714-.075-.06-1.128-.888-1.12-.872c-.151.444-.338.872-.526,1.309a22.455,22.455,0,0,1-4.37,6.3c-.143.143-.293.293-.436.451-.12.113-.241.233-.361.346-.15.151-.3.293-.466.436a26.374,26.374,0,0,1-2.52,2.031l-2.805,2,1.843.241h.008l1.572.2c.173.015.346.038.519.045a10.144,10.144,0,0,0,1.06.053,14.9,14.9,0,0,0,10.928-5.28l.9,1.873L74,77.015A19.459,19.459,0,0,0,77.872,66.29l3.091,1.429.278-1.767A40.2,40.2,0,0,0,81,52.105ZM17.524,70.5l-.008.008.023.038a.106.106,0,0,1-.015-.045" fill="#fff"/><path d="M107.339,118.442a26.492,26.492,0,0,0-.842-3.1v-.09a24.054,24.054,0,0,0-1.346-3.151,36.288,36.288,0,0,1,.083,3.693v.008c-.023.421-.045.775-.09,1.076l-.083.6-.654-.151a.68.68,0,0,1-.121-.022q.192.654.339,1.331c.1.443.188.88.263,1.331a24.164,24.164,0,0,1,.293,2.7c.03.451.045.9.045,1.361v17.389a15.773,15.773,0,0,1-.97,5.4c-.15.444-.338.872-.526,1.309a22.453,22.453,0,0,1-4.37,6.3c-.143.143-.293.293-.436.451-.12.113-.241.233-.361.346-.151.143-.308.293-.466.436-.484.436-.982.852-1.49,1.25l-.1.073a28.166,28.166,0,0,1-4.776,3,23.217,23.217,0,0,1-6.2,2.076,17.2,17.2,0,0,1-2.783.248h-4.6a17.558,17.558,0,0,1-4.919-.752A25.379,25.379,0,0,1,67,158.792a.431.431,0,0,0-.06-.03A25.283,25.283,0,0,1,57.2,148.2c-.188-.429-.369-.857-.526-1.3a16.029,16.029,0,0,1-.993-5.483v-17.4c0-.459.023-.91.045-1.361a25.3,25.3,0,0,1,.308-2.753c.075-.444.158-.88.263-1.309s.211-.88.331-1.3c-.068.008-.128.022-.2.03l-.677.128-.038-.609c-.03-.293-.045-.632-.053-1.023v-.008c-.015-.955.015-2.2.105-3.738a24.174,24.174,0,0,0-1.361,3.2v.09a24.5,24.5,0,0,0-.887,3.339,27.457,27.457,0,0,0-.512,4.2v.068q-.023.587-.022,1.173v17.268a18.615,18.615,0,0,0,1.474,7.213.108.108,0,0,0,.015.045,25.21,25.21,0,0,0,5.964,8.446,24.389,24.389,0,0,0,1.97,1.715c.587.489,1.188.933,1.8,1.354.466.316.925.617,1.391.9a27.55,27.55,0,0,0,6.9,3.061,20.3,20.3,0,0,0,5.663.85h4.6A19.5,19.5,0,0,0,86,164.718a25.424,25.424,0,0,0,6.919-2.316,29.415,29.415,0,0,0,3.791-2.226q.914-.62,1.805-1.331c.662-.526,1.309-1.083,1.94-1.677a25.021,25.021,0,0,0,5.716-7.814c.12-.256.225-.511.331-.775a18.9,18.9,0,0,0,1.422-7.16V124.15a27.836,27.836,0,0,0-.587-5.708" transform="translate(-36.935 -78.129)" fill="#fff"/><g transform="translate(22.248 22.536)" opacity="0.4"><g clip-path="url(#g)"><path d="M79.427,74.4l-.1,1.24-.04.519-.128,1.584H79.15l-.135,1.671-.91,11.208L78,91.847a23.967,23.967,0,0,0-4.555.054l.1-1.24.519-6.389.2-2.46.169-2.13.29-3.558.1-1.247c1.348-.182,2.9-.344,4.6-.479" transform="translate(-73.449 -74.398)" fill="#fff"/></g></g><g transform="translate(28.597 22.267)" opacity="0.3"><g clip-path="url(#h)"><path d="M106.383,74.082,104.84,93.053a67.577,67.577,0,0,1-8.189-1.1,21.556,21.556,0,0,0-2.244-.505l1.442-17.792c.849-.061,1.725-.108,2.622-.148Z" transform="translate(-94.407 -73.509)" fill="#fff"/></g></g><path d="M88.555,70.3H73.061c-.226,0-.444.008-.662.015h-.038a16.6,16.6,0,0,0-5.122,1.038l-.007.158c3.174-.211,6.724-.339,10.6-.384h.008c.918-.008,1.85-.008,2.805-.008,5.325,0,10.138.151,14.3.451A16.86,16.86,0,0,0,88.555,70.3m0,0H73.061c-.226,0-.444.008-.662.015h-.038a16.6,16.6,0,0,0-5.122,1.038l-.007.158c3.174-.211,6.724-.339,10.6-.384h.008c.918-.008,1.85-.008,2.805-.008,5.325,0,10.138.151,14.3.451A16.86,16.86,0,0,0,88.555,70.3m0,0H73.061c-.226,0-.444.008-.662.015h-.038a16.6,16.6,0,0,0-5.122,1.038l-.007.158c3.174-.211,6.724-.339,10.6-.384h.008c.918-.008,1.85-.008,2.805-.008,5.325,0,10.138.151,14.3.451A16.86,16.86,0,0,0,88.555,70.3m0,0H73.061c-.226,0-.444.008-.662.015h-.038a16.6,16.6,0,0,0-5.122,1.038l-.007.158c3.174-.211,6.724-.339,10.6-.384h.008c.918-.008,1.85-.008,2.805-.008,5.325,0,10.138.151,14.3.451A16.86,16.86,0,0,0,88.555,70.3m0,0H73.061c-.226,0-.444.008-.662.015h-.038a16.6,16.6,0,0,0-5.122,1.038l-.007.158c3.174-.211,6.724-.339,10.6-.384h.008c.918-.008,1.85-.008,2.805-.008,5.325,0,10.138.151,14.3.451A16.86,16.86,0,0,0,88.555,70.3m0,0H73.061c-.226,0-.444.008-.662.015h-.038a16.6,16.6,0,0,0-5.122,1.038l-.007.158c3.174-.211,6.724-.339,10.6-.384h.008c.918-.008,1.85-.008,2.805-.008,5.325,0,10.138.151,14.3.451A16.86,16.86,0,0,0,88.555,70.3m0,0H73.061c-.226,0-.444.008-.662.015h-.038a16.6,16.6,0,0,0-5.122,1.038l-.007.158c3.174-.211,6.724-.339,10.6-.384h.008c.918-.008,1.85-.008,2.805-.008,5.325,0,10.138.151,14.3.451A16.86,16.86,0,0,0,88.555,70.3m19.374,10.063-.052-.632c-.023-.263-.045-.526-.075-.767-.09-.918-.188-1.79-.286-2.587l-.226-1.79c-.023-.2-.045-.384-.075-.557l-.015-.1c-.068-.5-.128-.872-.158-1.12l-.03-.226c-.083-1.339-1.482-2.369-7.98-3.091l-.993-.113c-1.843-.173-3.911-.324-6.152-.444-3.377-.165-7.265-.263-11.244-.263-3.5,0-6.919.075-10.146.218-2.677.12-5.047.278-7.047.474l-.211.023c-7.461.752-8.965,1.827-8.965,3.324l.008.369c-.03.368-.075.872-.113,1.414l-.226,2.444c-.068.91-.143,1.767-.2,2.565l-.068.85c-.294,4.393-.241,6.837.2,8.093a3.015,3.015,0,0,0,.173.406,1.689,1.689,0,0,0,.324.451,1.513,1.513,0,0,0,.639.414,1.036,1.036,0,0,0,.143.038,1.569,1.569,0,0,0,.376.045l.323-.03c.181-.038.361-.083.534-.12a26.217,26.217,0,0,1,3.866-.587h.03c.639-.052,1.256-.083,1.888-.083.609,0,1.226.03,1.82.083a19.745,19.745,0,0,1,3.828.7l.113.03c2.3.444,4.558.767,6.716.97,1.173.113,2.316.188,3.437.218.647.03,1.279.045,1.9.045q1.793,0,3.5-.135c.782-.06,1.549-.128,2.294-.241a32.844,32.844,0,0,0,4.392-.872l.053-.015c5.8-1.2,10.71-1.219,15.019-.053l.166.045.354.045a1.99,1.99,0,0,0,.586-.09,1.7,1.7,0,0,0,.241-.105,1.94,1.94,0,0,0,.556-.429,2.4,2.4,0,0,0,.361-.519l.023-.06a3.679,3.679,0,0,0,.165-.414c.474-1.384.549-3.9.233-7.822m-2.339,5.175v.007c-.023.421-.045.775-.09,1.076l-.083.6-.654-.15a.671.671,0,0,1-.121-.023,35.9,35.9,0,0,0-15,.346l-.135.038a39.375,39.375,0,0,1-13.079,1.023h-.008a65.984,65.984,0,0,1-7.9-1.038l-.1-.023a21.933,21.933,0,0,0-2.429-.549c-.587-.1-1.181-.165-1.79-.218-.654-.06-1.331-.083-2.016-.083a24.133,24.133,0,0,0-2.535.128c-.872.075-1.76.2-2.662.368-.068.008-.128.023-.2.03l-.677.128-.038-.609c-.03-.294-.045-.632-.052-1.023v-.008c-.015-.955.015-2.2.105-3.738.075-1.361.2-2.956.346-4.768.015-.218.038-.437.06-.632l.278-3.377.316-.128a3.124,3.124,0,0,1,.346-.113l.143-.053c.286-.083.677-.181,1.233-.293s1.233-.226,1.971-.324c1.023-.143,2.2-.278,3.475-.391.361-.038.737-.068,1.128-.1l1.2-.09c.03,0,.075-.008.105-.008.165-.015.331-.023.5-.038,3.174-.211,6.724-.339,10.6-.384h.008c.918-.008,1.85-.008,2.805-.008,5.325,0,10.138.151,14.3.451.045,0,.083.008.12.008.97.068,2,.165,3.091.278a29.662,29.662,0,0,1,5.9,1.015l.466.2.06.361c.068.4.121.8.173,1.188l.068.481.008.1c.022.15.045.331.075.541.03.271.068.549.105.85l.045.391c.2,1.775.353,3.414.444,4.859a36.38,36.38,0,0,1,.083,3.693M88.555,70.3H73.061c-.226,0-.444.008-.662.015h-.038a16.6,16.6,0,0,0-5.122,1.038l-.007.158c3.174-.211,6.724-.339,10.6-.384h.008c.918-.008,1.85-.008,2.805-.008,5.325,0,10.138.151,14.3.451A16.86,16.86,0,0,0,88.555,70.3m0,0H73.061c-.226,0-.444.008-.662.015h-.038a16.6,16.6,0,0,0-5.122,1.038l-.007.158c3.174-.211,6.724-.339,10.6-.384h.008c.918-.008,1.85-.008,2.805-.008,5.325,0,10.138.151,14.3.451A16.86,16.86,0,0,0,88.555,70.3m0,0H73.061c-.226,0-.444.008-.662.015h-.038a16.6,16.6,0,0,0-5.122,1.038l-.007.158c3.174-.211,6.724-.339,10.6-.384h.008c.918-.008,1.85-.008,2.805-.008,5.325,0,10.138.151,14.3.451A16.86,16.86,0,0,0,88.555,70.3m0,0H73.061c-.226,0-.444.008-.662.015h-.038a16.6,16.6,0,0,0-5.122,1.038l-.007.158c3.174-.211,6.724-.339,10.6-.384h.008c.918-.008,1.85-.008,2.805-.008,5.325,0,10.138.151,14.3.451A16.86,16.86,0,0,0,88.555,70.3m0,0H73.061c-.226,0-.444.008-.662.015h-.038a16.6,16.6,0,0,0-5.122,1.038l-.007.158c3.174-.211,6.724-.339,10.6-.384h.008c.918-.008,1.85-.008,2.805-.008,5.325,0,10.138.151,14.3.451A16.86,16.86,0,0,0,88.555,70.3m0,0H73.061c-.226,0-.444.008-.662.015h-.038a16.6,16.6,0,0,0-5.122,1.038l-.007.158c3.174-.211,6.724-.339,10.6-.384h.008c.918-.008,1.85-.008,2.805-.008,5.325,0,10.138.151,14.3.451A16.86,16.86,0,0,0,88.555,70.3m0,0H73.061c-.226,0-.444.008-.662.015h-.038a16.6,16.6,0,0,0-5.122,1.038l-.007.158c3.174-.211,6.724-.339,10.6-.384h.008c.918-.008,1.85-.008,2.805-.008,5.325,0,10.138.151,14.3.451A16.86,16.86,0,0,0,88.555,70.3" transform="translate(-37.291 -47.874)" fill="#fff"/><path d="M189.032,88.934a1,1,0,1,1-1-1,1,1,0,0,1,1,1" transform="translate(-130.38 -61.3)" fill="#fff"/><path d="M189.032,114.454a1,1,0,1,1-1-1,1,1,0,0,1,1,1" transform="translate(-130.38 -79.09)" fill="#fff"/><path d="M95.694,88.934a1,1,0,1,1-1-1,1,1,0,0,1,1,1" transform="translate(-65.313 -61.3)" fill="#fff"/><path d="M95.694,114.454a1,1,0,1,1-1-1,1,1,0,0,1,1,1" transform="translate(-65.313 -79.09)" fill="#fff"/><path d="M125.209,92.5h-1.017a12.385,12.385,0,0,0,.957-2.042l-1.058-.391a9.2,9.2,0,0,1-.512,1.2v-.593h-.788v-.95h-1.166v.95h-.91v1.193h.91V92.5h-1.038v1.22h1.186c-.1.095-.209.189-.317.277a7.178,7.178,0,0,1-1.011.735V90.1h-2.857v6.45h2.278l-.788.384.02-.068-1.119-.317a4.614,4.614,0,0,1-.384,1,3.312,3.312,0,0,1-.559.822,2.82,2.82,0,0,1,.324.222c.121.088.236.182.35.276a3.045,3.045,0,0,1,.283.25,5.191,5.191,0,0,0,.573-.91,7.7,7.7,0,0,0,.465-1.119c.148.263.29.553.425.856a5.085,5.085,0,0,1,.3.788l1-.539a6.283,6.283,0,0,0-.337-.8c-.155-.3-.31-.586-.472-.849h.5V95.355c.074.135.142.27.209.4a3.3,3.3,0,0,1,.155.344c.094-.061.189-.121.276-.182s.155-.108.229-.168c.014-.007.02-.02.034-.027v3.35h1.112v-.3h1.206v.256h1.159V94.661h-.418l.411-.445a2.417,2.417,0,0,0-.229-.242,3.356,3.356,0,0,0-.3-.25h.917Zm-5.9,2.925h-.633v-.721h.633Zm0-1.759h-.633v-.708h.633Zm0-1.752h-.633v-.694h.633Zm3.484-.047h.458c-.061.108-.128.209-.2.317s-.148.209-.216.317h-.047Zm.876,5.762h-1.206v-.384h1.206Zm0-1.456h-1.206V95.8h1.206Zm-1.092-1.516c.135-.155.276-.3.411-.458s.256-.317.384-.479h.337l-.425.452c.095.068.2.141.29.222a3.355,3.355,0,0,1,.276.263Z" transform="translate(-81.583 -62.548)" fill="#fff"/><path d="M152.29,95.546v-.337h.809V91.98h-1.793v-.3h2.076V90.592h-.546l.256-.377a6.832,6.832,0,0,0-1.065-.688l-.526.721c.168.1.337.216.512.344h-.708V89.574h-1.173v1.018h-2.056v1.092h2.056v.3h-1.685v3.228h2.669v.337h-3.188v1.119h1.153l-.465.384c.121.128.242.27.37.425s.243.31.357.465a2.613,2.613,0,0,1,.25.411l.613-.532a5.123,5.123,0,0,1,.31,1.125c.283,0,.532-.013.748-.034a1.79,1.79,0,0,0,.586-.155.691.691,0,0,0,.35-.384,2.254,2.254,0,0,0,.088-.681V96.664h1.173V95.546Zm-2.156-1.233h-.6v-.3h.6Zm0-1.146h-.6v-.29h.6Zm.984,4.482a.125.125,0,0,1-.141.142h-.3c-.148,0-.29-.007-.425-.014l.216-.189a3.8,3.8,0,0,0-.317-.445c-.135-.168-.276-.324-.424-.479h1.388Zm.849-3.336h-.66v-.3h.66Zm0-1.146h-.66v-.29h.66Zm-4.5-1.186V89.574h-1.2V91.98H145.4v1.287h.863v5.661h1.2V93.268h.775V91.98Z" transform="translate(-101.358 -62.408)" fill="#fff"/><path d="M172.876,140.873l-18.569,1.639-1.354.121-1.361.128h-.015l.015.068,1.324,4.859,1.346,4.949,1.143,4.189h20.231l.113-2.685.075-1.775.083-1.767.18-4.264.113-2.693.113-2.55.023-.534Zm.241,11.906-.06,1.346H157.466l-2.445-8.965,3.6-.316,3.2-.286.654-.06,5.919-.526,5.107-.451Z" transform="translate(-105.663 -97.981)" fill="#fff"/><path d="M81.388,142.643l-1.355-.115-19.76-1.759-2.312-.2.02.438.115,2.642.115,2.7.182,4.124.074,1.773.081,1.772.121,2.817H78.9l1.18-4.333,1.348-4.953,1.3-4.778Zm-20.2,10.015-.4-9.132,18.486,1.644-2.44,8.964H61.251Z" transform="translate(-40.405 -97.988)" fill="#fff"/><rect width="8.438" height="2.696" transform="translate(39.279 47.342)" fill="#fff"/><path d="M316.464,183.939h-4.629V155.252q0-5.93,5.544-5.931h3.471q5.545,0,5.545,5.931v28.688h-4.629V171.259h-5.3Zm5.3-16.875V155.541a1.79,1.79,0,0,0-2.025-2.025h-1.254a1.79,1.79,0,0,0-2.025,2.025v11.523Z" transform="translate(-217.377 -104.09)" fill="#ed0033"/><path d="M387.514,174.875v3.182q0,5.883-5.544,5.882H378.98q-5.545,0-5.545-5.882V155.2q0-5.882,5.545-5.883h2.989q5.544,0,5.544,5.883v4.869h-4.629V155.2a1.812,1.812,0,0,0-2.073-2.025H379.9q-1.833,0-1.832,2.025v22.854q0,2.025,1.832,2.025h1.157q1.831,0,1.832-2.025v-3.182Z" transform="translate(-260.318 -104.09)" fill="#ed0033"/><path d="M435.683,183.939h-4.629V155.252q0-5.93,5.544-5.931h3.472q5.544,0,5.545,5.931v28.688h-4.629V171.259h-5.3Zm5.3-16.875V155.541a1.79,1.79,0,0,0-2.025-2.025h-1.254a1.79,1.79,0,0,0-2.025,2.025v11.523Z" transform="translate(-300.483 -104.09)" fill="#ed0033"/><path d="M492.654,149.322h8.052q6.508,0,6.509,6.653v22.95q0,5.015-5.544,5.014h-9.016Zm4.628,30.423h3.471q1.832,0,1.832-1.542V156.024q0-2.507-2.073-2.507h-3.231Z" transform="translate(-343.424 -104.091)" fill="#ed0033"/><path d="M554.254,183.94V149.321h10.222v3.858h-5.593v11.813h5.593v3.857h-5.593v11.234h5.593v3.857Z" transform="translate(-386.365 -104.09)" fill="#ed0033"/><path d="M609.337,169.668l4.291-20.346h5.111V183.94h-4.628l.482-22.661-3.472,16.393h-3.568l-3.471-16.393.482,22.661h-4.628V149.322h5.111Z" transform="translate(-418.209 -104.091)" fill="#ed0033"/><path d="M678.963,164.365l3.134-15.043h4.581l-5.593,21.89V183.94h-4.629V171.211l-5.689-21.89h4.58l3.471,15.043Z" transform="translate(-467.584 -104.091)" fill="#ed0033"/><path d="M311.839,54.634v-33.3h9.833v3.711h-5.381V36.405h5.381v3.711h-5.381V50.924h5.381v3.711Z" transform="translate(-217.379 -14.869)" fill="#fff"/><path d="M365.62,54.634h-9.833v-33.3h4.453V50.924h5.381Z" transform="translate(-248.015 -14.869)" fill="#fff"/><path d="M412.072,38.261l.047,16.374h-8.581q-5.335,0-5.334-5.659V26.99q0-5.658,5.334-5.659h2.876q5.333,0,5.334,5.659v4.685h-4.453v-4.36a1.743,1.743,0,0,0-1.994-1.948h-.881q-1.763,0-1.763,1.948V48.651A1.742,1.742,0,0,0,404.65,50.6h2.969V41.972h-2.69V38.261Z" transform="translate(-277.583 -14.87)" fill="#fff"/><path d="M461.609,54.635h-4.453v-27.6q0-5.705,5.334-5.705h3.34q5.334,0,5.335,5.705v27.6h-4.453v-12.2h-5.1Zm5.1-16.234V27.315a1.722,1.722,0,0,0-1.948-1.948h-1.206a1.722,1.722,0,0,0-1.948,1.948V38.4Z" transform="translate(-318.679 -14.87)" fill="#fff"/><path d="M525.462,40.9,529.59,21.33h4.917v33.3h-4.453l.464-21.8-3.34,15.77h-3.433l-3.339-15.77.464,21.8h-4.453V21.33h4.917Z" transform="translate(-359.989 -14.869)" fill="#fff"/><rect width="4.453" height="33.304" transform="translate(178.693 6.461)" fill="#fff"/><path d="M627.63,21.33h4.453v33.3H627.63V48l-4.778-15.167v21.8H618.4V21.33h4.453l4.778,16.1Z" transform="translate(-431.08 -14.869)" fill="#fff"/><path d="M691.223,38.261l.047,16.374h-8.581q-5.334,0-5.334-5.659V26.99q0-5.658,5.334-5.659h2.876q5.333,0,5.334,5.659v4.685h-4.453v-4.36a1.743,1.743,0,0,0-1.994-1.948h-.881q-1.764,0-1.763,1.948V48.651A1.742,1.742,0,0,0,683.8,50.6h2.969V41.972h-2.69V38.261Z" transform="translate(-472.176 -14.87)" fill="#fff"/></g></g></svg>