<svg xmlns="http://www.w3.org/2000/svg" xmlns:xlink="http://www.w3.org/1999/xlink" width="187.802" height="74.468" viewBox="0 0 187.802 74.468"><defs><clipPath id="a"><rect width="187.802" height="74.468" fill="#757577"/></clipPath></defs><g transform="translate(0 8)"><g transform="translate(0 -8)" clip-path="url(#a)"><path d="M67.6,32.158l5.834-1.89L62.643,19.842l2.973-8.787-11.65.083L51.33,1.1,42.78,7.021,37.41,0l-.057.07L37.3,0,31.929,7.021,23.389,1.1,20.746,11.139,9.1,11.056l2.965,8.787L1.27,30.267l5.84,1.89L0,44.665H5.279a34.507,34.507,0,0,0-.2,11.869l.234,1.514,2.648-1.226a16.688,16.688,0,0,0,3.313,9.194l1.148,1.438.774-1.607a12.592,12.592,0,0,0,10.181,4.495c.4.27.792.53,1.192.774a23.524,23.524,0,0,0,5.912,2.622,17.367,17.367,0,0,0,4.853.73h3.939a16.73,16.73,0,0,0,2.786-.244,21.832,21.832,0,0,0,5.93-1.986,25.008,25.008,0,0,0,3.251-1.908,9.054,9.054,0,0,0,.909.044,12.769,12.769,0,0,0,9.368-4.526l.771,1.607,1.142-1.438a16.692,16.692,0,0,0,3.321-9.194L69.4,58.047l.239-1.514a34.508,34.508,0,0,0-.205-11.869h5.273ZM16.267,27.185c.026-.335.052-.683.08-1.041.013-.182.029-.369.044-.556l.023-.286c.008-.1.016-.19.023-.288s.013-.179.023-.267c0-.049.008-.1.013-.148s.01-.086.016-.127l.239-2.9.27-.109h0a1.312,1.312,0,0,1,.216-.073l.078-.023.062-.023.06-.023c.031-.008.062-.018.1-.026s.07-.018.106-.029c.221-.057.5-.122.857-.195.044-.008.091-.018.138-.029.14-.029.288-.055.441-.08.068-.013.138-.023.21-.036.221-.036.454-.073.7-.106l.2-.026h0l.332-.047c.34-.044.7-.088,1.072-.13.249-.029.5-.057.766-.083l.4-.039.408-.036c.07-.008.143-.016.216-.021a.064.064,0,0,1,.021,0c.153-.016.306-.029.465-.039a.175.175,0,0,1,.036-.005l.228-.016v0h0l.252-.018c.177-.013.353-.026.532-.042.042,0,.083,0,.125-.008l.122-.008c.026,0,.065-.008.091-.008l.213-.016.218-.016v0c.5-.034,1.01-.065,1.532-.093q2.944-.164,6.322-.221l1.231-.016v0h.005l.582,0h.01q.892,0,1.812,0c.249,0,.5,0,.743,0s.491,0,.735,0q1.18.008,2.319.026c.179,0,.358.005.537.01l.571.01.106,0,.7.018q1.18.031,2.308.078c.5.021.981.042,1.462.068h0q1.441.07,2.781.169c.036,0,.07.005.1.005.312.021.631.047.958.075.545.047,1.109.1,1.693.164,1.293.135,2.4.283,3.277.439l.3.055c.192.039.376.075.548.114.208.047.4.1.569.145h0q.2.058.366.117l.4.174v0l.023.14.029.166c.057.343.1.685.148,1.02l.057.413.008.083c.005.034.008.068.013.1s.01.083.018.127c.01.073.021.153.031.236.026.231.06.47.091.727l.039.335c.044.382.083.753.122,1.119s.073.722.1,1.07c.065.7.117,1.358.156,1.976.026.449.049.875.062,1.277.029.722.034,1.358.008,1.888v.008l-.008.132q0,.129-.016.249c-.01.161-.023.306-.042.441,0,.034-.008.068-.013.1l-.07.517h0l-.558-.13a.1.1,0,0,1-.026,0,.077.077,0,0,1-.026-.005.5.5,0,0,0-.052-.013c-.389-.083-.784-.158-1.184-.223-.06-.01-.119-.018-.177-.029a28.278,28.278,0,0,0-7.127-.132c-.156.016-.312.034-.47.049-.312.036-.628.075-.948.119-.8.112-1.615.247-2.451.413-.166.031-.335.065-.5.1l-.117.031a33.744,33.744,0,0,1-11.212.878h-.005c-.039,0-.078-.005-.119-.01-.473-.031-.95-.07-1.433-.119-.062-.005-.122-.01-.184-.018q-.779-.078-1.579-.184-.849-.113-1.714-.252c-.576-.093-1.161-.195-1.747-.306l-.08-.021c-.06-.018-.119-.034-.182-.049l-.283-.078c-.156-.039-.312-.078-.47-.112-.065-.016-.127-.029-.192-.042-.317-.073-.636-.132-.956-.19h0c-.379-.062-.758-.109-1.145-.151-.127-.013-.257-.023-.387-.036h0c-.14-.013-.28-.023-.423-.031s-.3-.018-.444-.023-.288-.01-.434-.013c-.07,0-.143,0-.216,0s-.143,0-.216,0c-.177,0-.353,0-.532.008q-.81.019-1.636.1h0c-.748.065-1.506.174-2.28.317a.57.57,0,0,0-.1.016c-.023,0-.047.008-.073.01l-.579.109-.034-.522c-.018-.19-.029-.4-.036-.636q0-.117-.008-.241v-.005c0-.068,0-.135,0-.205s0-.14,0-.213c0-.283,0-.589.013-.922,0-.109.005-.223.01-.338s.008-.236.013-.358c.008-.244.021-.5.034-.771q.012-.195.023-.4c.016-.283.034-.576.052-.883a.431.431,0,0,0,.005-.062c.021-.312.044-.636.068-.971M58.535,54.251a13.511,13.511,0,0,1-.831,4.627c-.13.382-.291.748-.452,1.122a19.244,19.244,0,0,1-3.744,5.4c-.122.122-.252.252-.374.387-.1.1-.208.2-.309.3-.13.122-.265.252-.4.374-.415.374-.844.732-1.277,1.072-.026.021-.057.042-.083.062q-.689.534-1.4,1.01h0c.378-.817.7-1.662,1-2.5a43.23,43.23,0,0,0,1.515-5.557,44.042,44.042,0,0,0,.9-10.106h5.452ZM52.958,39.5l.82-.073.486-.044,1.358-.119,2.532-.223-.335,7.935-.049,1.155H44.4L42.31,40.44l3.087-.27,2.747-.244.561-.052.145-.013Zm4.656-2.729L41.7,38.171l-1.161.1-1.168.109h-.013l.013.06.582,2.137H35.681l.6-2.2-1.148-.1-1.163-.1L17.03,36.67l-.779-.068c.034-.265.073-.53.117-.789a22.3,22.3,0,0,1,3.313-.5h.026c.548-.047,1.078-.07,1.618-.07.522,0,1.052.023,1.56.07a16.928,16.928,0,0,1,3.282.6l.1.026c1.973.379,3.908.657,5.756.831,1.007.1,1.986.161,2.947.187q.83.039,1.631.039,1.538,0,3-.117c.67-.052,1.327-.109,1.966-.205a28.245,28.245,0,0,0,3.765-.748l.044-.013a27.546,27.546,0,0,1,12.876-.047c.044.278.086.556.119.836ZM22.571,48.126h-4.7l-.052-1.264-.343-7.828,2.391.213,2.719.241.553.049,5.011.447,5.172.46-2.09,7.683H22.571Zm-5.2,11.939c-.161-.366-.317-.735-.452-1.114a13.758,13.758,0,0,1-.852-4.7V50.437h5.556a44.028,44.028,0,0,0,.9,10.125,43.23,43.23,0,0,0,1.515,5.557c.312.871.649,1.748,1.045,2.593a21.423,21.423,0,0,1-7.715-8.648M30.332,71.274a21.986,21.986,0,0,1-4.424-2.051h0a27.7,27.7,0,0,1-.737-6.863,44.552,44.552,0,0,0,2.478,5.066,23.012,23.012,0,0,0,2.7,3.851l-.007,0Zm11.326.673a14.8,14.8,0,0,1-2.386.213H35.333a15.06,15.06,0,0,1-4.214-.644c-.118-.033-.234-.067-.352-.1-1.761-3.091-2.467-6.668-3.058-10.129a41.123,41.123,0,0,1-.244-10.847H33l1.01-3.713,1.041-3.832h5.531l1.078,3.957.979,3.591h4.6A41.125,41.125,0,0,1,47,61.268c-.59,3.457-1.3,7.03-3.052,10.119a17.942,17.942,0,0,1-2.285.56m2.721-.7,0,0a23.071,23.071,0,0,0,2.683-3.838,44.594,44.594,0,0,0,2.477-5.066,27.83,27.83,0,0,1-.723,6.807c-.608.374-1.226.714-1.841,1.018a21.489,21.489,0,0,1-2.591,1.078M66.556,42.357l.33,1.418a32.324,32.324,0,0,1,.665,10.877l-2.96-1.368-.052,1.747A17.493,17.493,0,0,1,62.7,62.973L61.786,61.1,60.7,63.038a11.022,11.022,0,0,1-6.247,4.713,21.425,21.425,0,0,0,4.9-6.7l.348-.613-.065-.052a16.171,16.171,0,0,0,1.22-6.136v-14.8a23.814,23.814,0,0,0-.5-4.894c.408-1.184.47-3.344.2-6.7l-.044-.54c-.021-.226-.039-.452-.065-.66-.078-.787-.161-1.535-.244-2.217L60,22.9c-.018-.166-.039-.327-.065-.475l-.013-.086c-.057-.426-.109-.748-.135-.961l-.026-.192c-.07-1.148-1.27-2.03-6.839-2.651l-.852-.1c-1.579-.148-3.352-.278-5.273-.379-2.9-.143-6.226-.226-9.638-.226-3,0-5.93.065-8.7.187-2.3.1-4.326.239-6.042.405l-.179.021c-6.4.644-7.686,1.566-7.686,2.848l.008.317c-.026.314-.065.748-.1,1.21l-.192,2.1c-.06.782-.122,1.516-.169,2.2l-.057.73c-.252,3.765-.208,5.86.166,6.935a23.409,23.409,0,0,0-.436,3.6v.06c-.013.335-.021.67-.021,1v14.8a15.962,15.962,0,0,0,1.264,6.182l-.008.005.021.034a21.6,21.6,0,0,0,5.113,7.239,11.083,11.083,0,0,1-6.138-4.674L12.931,61.1l-.909,1.877a17.589,17.589,0,0,1-1.856-7.943l-.052-1.747L7.156,54.651a32.6,32.6,0,0,1,.67-10.877l.33-1.418H3.97l6.551-11.528L5.647,29.255l9.077-8.766-2.4-7.1,10.2.078,2.256-8.594,7.647,5.3L37.3,3.8l.052.07.057-.07,4.874,6.369,7.647-5.3,2.256,8.594,10.2-.078-2.4,7.1,9.077,8.766-4.874,1.573,6.551,11.528Z" fill="#757577"/><path d="M187.884,89.648a.854.854,0,1,0-.854-.854.856.856,0,0,0,.854.854" transform="translate(-138.468 -65.106)" fill="#757577"/><path d="M187.884,115.168a.854.854,0,1,0-.854-.854.856.856,0,0,0,.854.854" transform="translate(-138.468 -84)" fill="#757577"/><path d="M94.547,89.648a.581.581,0,0,0,.135-.013.851.851,0,0,0,.132-1.651.825.825,0,0,0-.267-.044.854.854,0,1,0,0,1.708" transform="translate(-69.363 -65.106)" fill="#757577"/><path d="M94.15,115.07a.852.852,0,1,0-.46-.756.857.857,0,0,0,.46.756" transform="translate(-69.363 -84)" fill="#757577"/><path d="M319.56,149.32h-2.976q-4.756,0-4.754,5.084V179H315.8V168.124h4.547V179h3.967V154.4q0-5.083-4.752-5.084m.784,15.21H315.8v-9.877a1.535,1.535,0,0,1,1.737-1.737h1.075a1.535,1.535,0,0,1,1.734,1.737Z" transform="translate(-230.863 -110.549)" fill="#757577"/><path d="M380.744,149.32h-2.56q-4.756,0-4.754,5.042v19.591q0,5.044,4.754,5.042h2.56q4.756,0,4.754-5.042v-2.729h-3.967v2.729q0,1.733-1.571,1.734h-.992q-1.57,0-1.571-1.734V154.362q0-1.737,1.571-1.734h.787a1.551,1.551,0,0,1,1.776,1.734v4.175H385.5v-4.175q0-5.04-4.754-5.042" transform="translate(-276.469 -110.549)" fill="#757577"/><path d="M438.78,149.32H435.8q-4.755,0-4.754,5.084V179h3.967V168.124h4.546V179h3.967V154.4q0-5.083-4.752-5.084m.784,15.21h-4.546v-9.877a1.535,1.535,0,0,1,1.737-1.737h1.072a1.535,1.535,0,0,1,1.737,1.737Z" transform="translate(-319.128 -110.549)" fill="#757577"/><path d="M499.551,149.32h-6.9V179h7.73q4.752,0,4.752-4.3V155.025q0-5.706-5.58-5.7m1.612,24.758q0,1.32-1.571,1.322h-2.976V152.916h2.77q1.776,0,1.776,2.15Z" transform="translate(-364.733 -110.549)" fill="#757577"/><path d="M554.25,179h8.763v-3.308h-4.8V166.06h4.8v-3.308h-4.8V152.628h4.8V149.32H554.25Z" transform="translate(-410.339 -110.549)" fill="#757577"/><path d="M607.99,166.761,604.31,149.32h-4.38V179H603.9l-.413-19.424,2.976,14.05h3.059l2.976-14.05L612.082,179h3.967V149.32h-4.38Z" transform="translate(-444.158 -110.549)" fill="#757577"/><path d="M677.786,162.214h-.125l-2.976-12.894H670.76l4.879,18.765V179h3.967v-10.91L684.4,149.32h-3.926Z" transform="translate(-496.597 -110.549)" fill="#757577"/><path d="M320.268,46.7h-4.614V37.433h4.614V34.253h-4.614V24.511h4.614V21.33H311.84V49.878h8.428Z" transform="translate(-230.871 -15.792)" fill="#757577"/><path d="M364.211,46.7H359.6V21.33H355.78V49.878h8.431Z" transform="translate(-263.402 -15.792)" fill="#757577"/><path d="M402.772,49.879h7.356l-.042-14.037h-6.123v3.181h2.306v7.395h-2.545a1.492,1.492,0,0,1-1.708-1.67V26.458q0-1.667,1.511-1.67h.756a1.493,1.493,0,0,1,1.708,1.67V30.2h3.817V26.18q0-4.849-4.572-4.85h-2.464q-4.572,0-4.572,4.85V45.028q0,4.849,4.572,4.85" transform="translate(-294.807 -15.792)" fill="#757577"/><path d="M469.159,49.879V26.222q0-4.892-4.572-4.892h-2.864q-4.572,0-4.572,4.892V49.879h3.817V39.42h4.375V49.879Zm-8.192-13.917v-9.5a1.477,1.477,0,0,1,1.67-1.67h1.036a1.477,1.477,0,0,1,1.67,1.67v9.5Z" transform="translate(-338.451 -15.792)" fill="#757577"/><path d="M528.1,49.878h3.817V21.33H527.7l-3.539,16.779L520.624,21.33H516.41V49.878h3.817l-.4-18.687,2.864,13.517h2.942L528.5,31.191Z" transform="translate(-382.324 -15.792)" fill="#757577"/><rect width="3.817" height="28.549" transform="translate(153.173 5.538)" fill="#757577"/><path d="M626.312,35.128l-4.095-13.8H618.4V49.878h3.817V31.191l4.095,13v5.686h3.817V21.33h-3.817Z" transform="translate(-457.833 -15.792)" fill="#757577"/><path d="M681.922,49.879h7.356l-.039-14.037h-6.125v3.181h2.308v7.395h-2.545a1.494,1.494,0,0,1-1.711-1.67V26.458q0-1.667,1.511-1.67h.756a1.493,1.493,0,0,1,1.708,1.67V30.2h3.817V26.18q0-4.849-4.572-4.85h-2.464q-4.572,0-4.572,4.85V45.028q0,4.849,4.572,4.85" transform="translate(-501.476 -15.792)" fill="#757577"/><path d="M117.03,97.135a2.275,2.275,0,0,1,.278.192c.1.073.2.156.3.236a2.55,2.55,0,0,1,.241.213,4.332,4.332,0,0,0,.491-.779,6.881,6.881,0,0,0,.4-.961c.127.226.247.475.364.735a4.3,4.3,0,0,1,.26.675l.854-.462a5.252,5.252,0,0,0-.288-.68c-.132-.26-.265-.5-.405-.73h.428v-1.02c.062.114.122.231.179.34a2.814,2.814,0,0,1,.132.293c.08-.052.161-.1.236-.156s.132-.091.2-.143a.225.225,0,0,1,.029-.023v2.872h.953v-.254h1.033V97.7h.994V93.957h-.358l.353-.379a2.014,2.014,0,0,0-.2-.21c-.08-.073-.166-.148-.254-.213h.787V92.108h-.872a10.539,10.539,0,0,0,.82-1.75l-.906-.335a7.661,7.661,0,0,1-.441,1.028v-.506h-.675V89.73h-1v.815h-.779v1.02h.779v.543h-.888v1.046h1.015c-.086.08-.179.161-.27.236a6.008,6.008,0,0,1-.867.631V90.047h-2.449v5.528h1.953l-.678.33.018-.057-.958-.273a4.054,4.054,0,0,1-.33.857,2.861,2.861,0,0,1-.48.7m4.933-5.569h.392c-.052.093-.109.179-.166.273s-.127.179-.184.27h-.042Zm.169,2c.109-.132.218-.27.33-.41h.288l-.364.387c.08.057.166.122.247.192a2.383,2.383,0,0,1,.236.223h-1.091c.114-.132.236-.26.353-.392m-.452,1.368h1.033v.325H121.68Zm0,1.244h1.033v.33H121.68Zm-2.7-1.561h-.543V94h.543Zm0-1.509h-.543v-.6h.543Zm0-1.5h-.543v-.595h.543Z" transform="translate(-86.643 -66.432)" fill="#757577"/><path d="M146.14,97.7h1.028V92.848h.665v-1.1h-.665V89.68H146.14v2.064h-.74v1.1h.74Z" transform="translate(-107.647 -66.395)" fill="#757577"/><path d="M155.63,91.633h-1.446V94.4h2.29v.291H153.74v.958h.989l-.4.33c.1.109.208.231.317.364s.21.265.306.4a2.188,2.188,0,0,1,.216.353l.525-.457a4.932,4.932,0,0,1,.161.48,4.614,4.614,0,0,1,.106.486c.241,0,.454-.01.641-.029a1.6,1.6,0,0,0,.5-.132.6.6,0,0,0,.3-.33,1.921,1.921,0,0,0,.075-.584v-.878h1v-.958h-1V94.4h.693V91.633h-1.537v-.254h1.779v-.937h-.467l.218-.322a3.96,3.96,0,0,0-.426-.306,4.354,4.354,0,0,0-.486-.283l-.452.618a5.165,5.165,0,0,1,.439.293h-.6v-.872h-1v.872h-1.763v.937h1.763Zm0,2h-.514v-.26h.514Zm0-.981h-.514V92.4h.514Zm.844,3.843a.109.109,0,0,1-.122.122H156.1c-.127,0-.249-.008-.363-.013l.184-.161a3.219,3.219,0,0,0-.273-.382,5.472,5.472,0,0,0-.364-.41h1.192Zm.161-4.089h.566v.247h-.566Zm0,.968h.566v.26h-.566Z" transform="translate(-113.821 -66.284)" fill="#757577"/></g></g></svg>